<svg xmlns="http://www.w3.org/2000/svg" viewBox="0 0 1024 1024" width="1024" height="1024">
  <defs>
    <linearGradient id="mBg" x1="0" y1="0" x2="0" y2="1"><stop offset="0" stop-color="#33373D"></stop><stop offset="1" stop-color="#1B1D21"></stop></linearGradient>
    <radialGradient id="mTop" cx="0.5" cy="0" r="0.9"><stop offset="0" stop-color="#FFFFFF" stop-opacity="0.06"></stop><stop offset="1" stop-color="#FFFFFF" stop-opacity="0"></stop></radialGradient>
    <linearGradient id="mRimE" x1="0" y1="0" x2="0" y2="1"><stop offset="0" stop-color="#FFFFFF" stop-opacity="0.14"></stop><stop offset="0.35" stop-color="#FFFFFF" stop-opacity="0.02"></stop><stop offset="1" stop-color="#FFFFFF" stop-opacity="0"></stop></linearGradient>
    <clipPath id="mClip"><rect x="96" y="96" width="832" height="832" rx="205"></rect></clipPath>
    <linearGradient id="mBody" x1="0.1" y1="0" x2="0.8" y2="1"><stop offset="0" stop-color="#2E4E58"></stop><stop offset="0.5" stop-color="#2A3A50"></stop><stop offset="1" stop-color="#3A2E48"></stop></linearGradient>
    <radialGradient id="mGlow" gradientUnits="userSpaceOnUse" cx="560" cy="600" r="300"><stop offset="0" stop-color="#8B6FE8" stop-opacity="0.32"></stop><stop offset="0.5" stop-color="#6FA8D8" stop-opacity="0.16"></stop><stop offset="1" stop-color="#6FA8D8" stop-opacity="0"></stop></radialGradient>
    <linearGradient id="mEdge" x1="0" y1="0" x2="1" y2="1"><stop offset="0" stop-color="#8FEEFF"></stop><stop offset="0.5" stop-color="#6FD0EA"></stop><stop offset="1" stop-color="#9F8FE0"></stop></linearGradient>
    <linearGradient id="mSpec" x1="0" y1="0" x2="1" y2="0"><stop offset="0" stop-color="#FFFFFF" stop-opacity="0"></stop><stop offset="0.3" stop-color="#FFFFFF" stop-opacity="0.85"></stop><stop offset="0.7" stop-color="#FFFFFF" stop-opacity="0.85"></stop><stop offset="1" stop-color="#FFFFFF" stop-opacity="0"></stop></linearGradient>
    <linearGradient id="mRim" x1="0" y1="0" x2="0" y2="1"><stop offset="0" stop-color="#FFFFFF" stop-opacity="0.16"></stop><stop offset="0.4" stop-color="#FFFFFF" stop-opacity="0.03"></stop><stop offset="1" stop-color="#FFFFFF" stop-opacity="0"></stop></linearGradient>
  </defs>
  <rect x="96" y="96" width="832" height="832" rx="205" fill="url(#mBg)"></rect>
  <g clip-path="url(#mClip)"><rect x="96" y="96" width="832" height="457.6" fill="url(#mTop)"></rect>
    <g transform="translate(512 512) scale(1.16) translate(-548 -512)">
      <path d="M420 336 L720 512 L420 688 Z" fill="url(#mBody)" stroke="url(#mBody)" stroke-width="52" stroke-linejoin="round"></path>
      <path d="M420 336 L720 512 L420 688 Z" fill="none" stroke="url(#mRim)" stroke-width="52" stroke-linejoin="round"></path>
      <path d="M420 336 L720 512 L420 688 Z" fill="url(#mGlow)" stroke="url(#mGlow)" stroke-width="52" stroke-linejoin="round" opacity="0.85" style="mix-blend-mode:screen"></path>
      <path d="M446 380 L680 512 L446 644 Z" fill="none" stroke="url(#mEdge)" stroke-width="11" stroke-linejoin="round" opacity="0.85" style="mix-blend-mode:screen"></path>
      <path d="M424 346 L600 449" stroke="url(#mSpec)" stroke-width="10" stroke-linecap="round" fill="none" opacity="0.65"></path>
    </g></g>
  <rect x="100" y="100" width="824" height="824" rx="201" fill="none" stroke="url(#mRimE)" stroke-width="7"></rect>
</svg>